<svg width="30" height="30" viewBox="0 0 30 30" fill="none" xmlns="http://www.w3.org/2000/svg">
<circle cx="15" cy="15" r="14.2917" stroke="#292929" stroke-width="0.583333"/>
<path d="M15 17.5278C15.3779 17.5278 15.6993 17.3954 15.9641 17.1307C16.2288 16.8659 16.3611 16.5445 16.3611 16.1667C16.3611 15.7888 16.2288 15.4674 15.9641 15.2026C15.6993 14.9379 15.3779 14.8056 15 14.8056C14.6222 14.8056 14.3008 14.9379 14.036 15.2026C13.7713 15.4674 13.6389 15.7888 13.6389 16.1667C13.6389 16.5445 13.7713 16.8659 14.036 17.1307C14.3008 17.3954 14.6222 17.5278 15 17.5278ZM9.01717 21.6111C8.62427 21.6111 8.2917 21.475 8.01948 21.2028C7.74726 20.9306 7.61115 20.598 7.61115 20.2051V12.1283C7.61115 11.7353 7.74726 11.4028 8.01948 11.1306C8.2917 10.8583 8.62427 10.7222 9.01717 10.7222H12.2778V9.40603C12.2778 9.01312 12.4139 8.68056 12.6861 8.40833C12.9584 8.13611 13.2909 8 13.6838 8H16.3162C16.7091 8 17.0417 8.13611 17.3139 8.40833C17.5861 8.68056 17.7223 9.01312 17.7223 9.40603V10.7222H20.9829C21.3758 10.7222 21.7084 10.8583 21.9806 11.1306C22.2528 11.4028 22.3889 11.7353 22.3889 12.1283V20.2051C22.3889 20.598 22.2528 20.9306 21.9806 21.2028C21.7084 21.475 21.3758 21.6111 20.9829 21.6111H9.01717ZM9.01717 20.4444H20.9829C21.0428 20.4444 21.0976 20.4195 21.1474 20.3696C21.1973 20.3198 21.2223 20.265 21.2223 20.2051V12.1283C21.2223 12.0684 21.1973 12.0135 21.1474 11.9637C21.0976 11.9138 21.0428 11.8889 20.9829 11.8889H9.01717C8.95728 11.8889 8.90245 11.9138 8.85267 11.9637C8.80277 12.0135 8.77781 12.0684 8.77781 12.1283V20.2051C8.77781 20.265 8.80277 20.3198 8.85267 20.3696C8.90245 20.4195 8.95728 20.4444 9.01717 20.4444ZM13.4445 10.7222H16.5556V9.40603C16.5556 9.34614 16.5306 9.29131 16.4807 9.24153C16.431 9.19162 16.3761 9.16667 16.3162 9.16667H13.6838C13.624 9.16667 13.5691 9.19162 13.5193 9.24153C13.4694 9.29131 13.4445 9.34614 13.4445 9.40603V10.7222Z" fill="#292929"/>
</svg>
