<svg width="357" height="375" viewBox="0 0 357 375" fill="none" xmlns="http://www.w3.org/2000/svg">
<path d="M114.299 45.226L114.278 45.2135C105.669 40.2333 94.6532 43.1747 89.673 51.7832L9.0174 191.202C4.03723 199.81 6.97863 210.826 15.5872 215.806L15.6088 215.819C24.2174 220.799 35.2332 217.858 40.2134 209.249L120.869 69.8306C125.849 61.222 122.908 50.2062 114.299 45.226Z" fill="#575757"/>
<path d="M341.031 176.407L341.009 176.394C332.4 171.414 321.385 174.356 316.404 182.964L235.749 322.383C230.769 330.991 233.71 342.007 242.318 346.987L242.34 347C250.949 351.98 261.965 349.038 266.945 340.43L347.6 201.011C352.581 192.403 349.639 181.387 341.031 176.407Z" fill="#575757"/>
<path d="M199.551 28.6244L199.53 28.6119C190.921 23.6317 179.905 26.5731 174.925 35.1817L37.0966 273.427C32.1164 282.036 35.0578 293.052 43.6664 298.032L43.688 298.044C52.2966 303.025 63.3124 300.083 68.2926 291.475L206.121 53.229C211.101 44.6204 208.16 33.6046 199.551 28.6244Z" fill="#575757"/>
<path d="M312.931 94.1674L312.909 94.1549C304.301 89.1747 293.285 92.1161 288.305 100.725L150.476 338.97C145.496 347.579 148.437 358.595 157.046 363.575L157.068 363.587C165.676 368.567 176.692 365.626 181.672 357.018L319.5 118.772C324.481 110.164 321.539 99.1476 312.931 94.1674Z" fill="#575757"/>
<path d="M275.837 26.6196L275.816 26.607C267.207 21.6268 256.191 24.5682 251.211 33.1768L73.4056 340.525C68.4254 349.134 71.3668 360.15 79.9753 365.13L79.997 365.143C88.6056 370.123 99.6213 367.181 104.601 358.573L282.407 51.2241C287.387 42.6155 284.446 31.5997 275.837 26.6196Z" fill="#575757"/>
<path d="M288.77 0.282638L236.623 30.2953C236.276 30.5012 235.988 30.7939 235.788 31.1447C235.588 31.4955 235.483 31.8923 235.483 32.2961C235.483 32.6998 235.588 33.0966 235.788 33.4475C235.988 33.7983 236.276 34.091 236.623 34.2969L288.72 64.3096C289.069 64.5108 289.464 64.6171 289.866 64.6179C290.269 64.6186 290.664 64.5138 291.014 64.3138C291.363 64.1138 291.654 63.8258 291.857 63.4783C292.06 63.1309 292.169 62.7362 292.172 62.3338V2.15843C292.148 1.77178 292.026 1.39744 291.819 1.07013C291.612 0.742827 291.325 0.473145 290.986 0.286073C290.647 0.0990006 290.266 0.000605111 289.879 2.7818e-06C289.491 -0.000599547 289.11 0.0966217 288.77 0.282638Z" fill="#575757"/>
</svg>
