<svg width="139" height="44" viewBox="0 0 139 44" fill="none" xmlns="http://www.w3.org/2000/svg">
<g clip-path="url(#clip0_12_949)">
<path d="M114.759 24.8852C116.875 24.8852 118.236 26.167 118.236 28.1083H111.047C111.395 25.9997 112.671 24.8852 114.759 24.8852ZM114.844 36.9207C118.583 36.9207 121.192 35.0665 121.801 31.9874H118.525C118.12 33.3295 116.845 34.0692 114.902 34.0692C112.555 34.0692 111.221 32.8141 110.959 30.334L121.744 30.3039V29.2496C121.744 24.8584 119.019 22.0336 114.728 22.0336C110.439 22.0336 107.599 25.086 107.599 29.5039C107.599 33.9219 110.586 36.9174 114.844 36.9174M94.5556 29.1056C94.5556 26.7963 96.0626 25.0559 98.4094 25.0559C100.872 25.0559 102.352 26.7092 102.352 29.1056C102.352 31.502 100.845 33.2391 98.4094 33.2391C95.9744 33.2391 94.5556 31.4719 94.5556 29.1056ZM90.9899 29.1927C90.9899 33.2692 93.6572 36.2648 97.7161 36.2648C99.774 36.2648 101.543 35.4381 102.441 34.126V36.4656C102.441 38.8051 100.876 40.3145 98.4408 40.3145C96.2668 40.3145 94.8446 39.2301 94.6132 37.4061H91.0755C91.5111 41.1714 94.3208 43.4807 98.4374 43.4807C103.074 43.4807 105.945 40.5422 105.945 35.8364V22.462H102.669L102.465 24.3999C101.624 22.8871 99.9444 22.0034 97.7975 22.0034C93.7114 22.0034 90.9865 25.0827 90.9865 29.1893M90.9289 22.4051C90.3508 22.2612 89.8576 22.2043 89.3643 22.2043C87.4522 22.2043 86.0884 23.1448 85.4791 24.5438L85.2748 22.4888H81.9413V36.5492H85.4791V29.7048C85.4791 26.967 87.075 25.6282 89.6228 25.6282H90.9255V22.4051H90.9289ZM73.2766 24.8852C75.3926 24.8852 76.7568 26.167 76.7568 28.1083H69.5686C69.9156 25.9997 71.1913 24.8852 73.28 24.8852M73.3651 36.9207C77.1038 36.9207 79.713 35.0665 80.322 31.9874H77.0459C76.6411 33.3295 75.3654 34.0692 73.4229 34.0692C71.0756 34.0692 69.7421 32.8141 69.4802 30.334L80.2641 30.3039V29.2496C80.2641 24.8584 77.5392 22.0336 73.2494 22.0336C68.9597 22.0336 66.1191 25.086 66.1191 29.5039C66.1191 33.9219 69.106 36.9174 73.3651 36.9174M57.3354 36.5492H60.8155L66.7859 22.462H63.1322L60.523 28.935C59.914 30.4745 59.3935 31.9573 59.1894 32.8408C59.0159 32.0711 58.5226 30.6151 57.9138 28.935L55.4201 22.462H51.6509L57.332 36.5492H57.3354ZM41.19 36.5492V28.9618C41.19 26.6791 42.5236 25.1965 44.6974 25.1965C46.5242 25.1965 47.7115 26.3378 47.7115 28.704V36.5459H51.2495V27.8774C51.2495 24.2259 49.3954 22.0303 45.7996 22.0303C43.8571 22.0303 42.1188 22.857 41.2207 24.2827L40.9315 22.4587H37.6555V36.5459H41.1934L41.19 36.5492ZM24.2317 29.4772C24.2317 26.9101 25.9121 25.1697 28.3479 25.1697C30.7837 25.1697 32.4642 26.9101 32.4642 29.4772C32.4642 32.0442 30.7837 33.7847 28.3479 33.7847C25.9121 33.7847 24.2317 32.0442 24.2317 29.4772ZM20.6971 29.4772C20.6971 33.8684 23.9153 36.8906 28.3479 36.8906C32.7806 36.8906 35.9988 33.8684 35.9988 29.4772C35.9988 25.086 32.7806 22.0637 28.3479 22.0637C23.9153 22.0637 20.6971 25.086 20.6971 29.4772ZM10.1751 36.8906C15.1894 36.8906 19.0744 33.9821 19.884 29.591H16.0297C15.3357 31.9003 13.1313 33.383 10.2601 33.383C6.37513 33.383 3.88155 30.5315 3.88155 26.1102C3.88155 21.6888 6.34452 18.8674 10.2601 18.8674C13.0735 18.8674 15.1894 20.2932 15.9107 22.7164H19.8228C19.0982 18.2382 15.3595 15.3599 10.3452 15.3599C4.1435 15.3599 0 19.6673 0 26.1403C0 32.6133 4.00062 36.8906 10.1751 36.8906Z" fill="#074556"/>
<path d="M120.971 18.6261C120.26 16.6748 120.188 14.7303 120.729 13.0367C120.59 13.0668 120.443 13.0936 120.288 13.1036C117.168 13.3078 115.933 10.9349 116.695 9.65962C117.188 8.83293 118.015 8.52172 118.76 8.42129C119.505 8.32087 120.352 8.49828 121.005 8.83962C122.369 9.48557 123.93 9.24797 124.489 8.351V8.34765C124.955 7.59794 124.56 6.62064 123.641 5.97468C121.954 4.89697 119.597 4.40162 117.297 4.52881C112.637 4.79656 108.878 7.98619 109.619 12.1765C110.425 16.7183 115.794 19.7506 121.094 18.9641C121.049 18.8537 121.005 18.7433 120.964 18.6294" fill="#00A345"/>
<path d="M136.8 15.5201C136.178 15.7008 135.504 15.7946 134.799 15.7946C134.085 15.7946 133.36 15.6941 132.653 15.5134C133.385 16.9794 132.752 18.7934 130.768 18.7499C128.697 18.7031 127.697 16.6648 127.697 16.6648C127.336 15.8983 127.326 15.1452 127.598 14.5662C128.04 13.4015 127.299 11.9824 125.945 11.3097C125.945 11.3097 125.945 11.3097 125.938 11.3097L125.931 11.3063C124.73 10.7072 123.349 10.831 122.563 11.5808C121.325 13.2442 120.933 15.6573 121.896 18.3048C123.917 23.8406 130.262 27.0068 134.858 24.771C138.341 23.0741 139.008 18.9742 137.269 15.3628C137.117 15.423 136.96 15.4766 136.796 15.5235" fill="#19F076"/>
<path d="M137.62 7.87264C136.058 5.82432 133.443 4.30147 131.02 3.91992C131.608 4.95412 131.85 5.98163 131.741 6.89869C132.102 6.89199 132.868 6.96897 133.718 7.62832C134.671 8.36798 135.412 9.77032 134.198 10.3695C133.252 10.8347 132.075 10.1352 132.075 10.1352C130.863 9.55946 129.601 9.78378 129.214 10.6975V10.7041C128.853 11.5643 129.38 12.7358 130.432 13.4854C132.392 14.764 134.742 15.0986 136.521 14.5799C139.474 13.723 139.722 10.6271 137.62 7.86594" fill="#00A345"/>
<path d="M129.949 4.04366C128.442 1.75771 124.999 0.0373827 121.845 0.000566457C118.875 -0.0329029 116.705 1.41966 116.742 3.59516C116.909 3.57844 117.076 3.56505 117.242 3.55501C118.835 3.46464 120.403 3.65207 121.801 4.08048C121.771 3.75917 121.862 3.33076 122.44 3.03289C123.482 2.49737 124.869 3.13998 124.869 3.13998C124.869 3.13998 125.863 3.53493 126.231 4.27125C126.465 4.73982 126.482 5.16153 126.258 5.49623C125.842 6.23255 126.452 7.33368 127.663 7.93948C127.663 7.93948 127.666 7.93948 127.67 7.93948C127.67 7.93948 127.677 7.93948 127.677 7.94283C128.748 8.47838 129.867 8.40805 130.357 7.85246C131.088 6.85842 130.84 5.39916 129.949 4.04366Z" fill="#19F076"/>
</g>
<defs>
<clipPath id="clip0_12_949">
<rect width="139" height="44" fill="white"/>
</clipPath>
</defs>
</svg>
