<svg width="30" height="26" viewBox="0 0 30 26" fill="none" xmlns="http://www.w3.org/2000/svg">
<path d="M11.4452 18.6261C10.7349 16.6748 10.6628 14.7303 11.2036 13.0367C11.0646 13.0668 10.918 13.0936 10.762 13.1036C7.64214 13.3078 6.40725 10.9349 7.16921 9.65962C7.66249 8.83293 8.4897 8.52172 9.23471 8.42129C9.97972 8.32087 10.8264 8.49828 11.4799 8.83962C12.8436 9.48557 14.4048 9.24797 14.9634 8.351V8.34765C15.4295 7.59794 15.0346 6.62064 14.1158 5.97468C12.4283 4.89697 10.0713 4.40162 7.77182 4.52881C3.11108 4.79656 -0.647842 7.98619 0.093774 12.1765C0.899805 16.7183 6.26825 19.7506 11.568 18.9641C11.524 18.8537 11.4799 18.7433 11.4384 18.6294" fill="#00A345"/>
<path d="M27.2743 15.5201C26.6522 15.7008 25.9784 15.7946 25.2741 15.7946C24.5596 15.7946 23.8349 15.6941 23.1281 15.5134C23.8595 16.9794 23.2264 18.7934 21.2431 18.7499C19.1716 18.7031 18.1715 16.6648 18.1715 16.6648C17.8105 15.8983 17.8003 15.1452 18.0724 14.5662C18.5148 13.4015 17.7732 11.9824 16.4196 11.3097C16.4196 11.3097 16.4196 11.3097 16.4128 11.3097L16.4052 11.3063C15.2051 10.7072 13.8235 10.831 13.0378 11.5808C11.7996 13.2442 11.408 15.6573 12.3708 18.3048C14.3914 23.8406 20.7362 27.0068 25.3326 24.771C28.816 23.0741 29.4822 18.9742 27.7439 15.3628C27.5913 15.423 27.4345 15.4766 27.2709 15.5235" fill="#19F076"/>
<path d="M28.0946 7.87264C26.5326 5.82432 23.917 4.30147 21.4947 3.91992C22.0829 4.95412 22.3245 5.98163 22.216 6.89869C22.5762 6.89199 23.3424 6.96897 24.1925 7.62832C25.1451 8.36798 25.8867 9.77032 24.6722 10.3695C23.7263 10.8347 22.549 10.1352 22.549 10.1352C21.3379 9.55946 20.0759 9.78378 19.6885 10.6975V10.7041C19.3275 11.5643 19.8547 12.7358 20.9065 13.4854C22.866 14.764 25.2163 15.0986 26.9954 14.5799C29.9483 13.723 30.1966 10.6271 28.0946 7.86594" fill="#00A345"/>
<path d="M20.4235 4.04366C18.9165 1.75771 15.4737 0.0373827 12.3199 0.000566457C9.35009 -0.0329029 7.17949 1.41966 7.21678 3.59516C7.38375 3.57844 7.55072 3.56505 7.71684 3.55501C9.30941 3.46464 10.8774 3.65207 12.2759 4.08048C12.2454 3.75917 12.3369 3.33076 12.9149 3.03289C13.9566 2.49737 15.344 3.13998 15.344 3.13998C15.344 3.13998 16.3374 3.53493 16.7052 4.27125C16.94 4.73982 16.957 5.16153 16.7324 5.49623C16.317 6.23255 16.9264 7.33368 18.1376 7.93948C18.1376 7.93948 18.141 7.93948 18.1444 7.93948C18.1444 7.93948 18.1512 7.93948 18.1512 7.94283C19.2225 8.47838 20.3413 8.40805 20.8312 7.85246C21.5626 6.85842 21.3143 5.39916 20.4235 4.04366Z" fill="#19F076"/>
</svg>
