<?xml version="1.0" encoding="UTF-8"?>
<svg version="1.1" xmlns="http://www.w3.org/2000/svg" width="48" height="48">
<path d="M0 0 C0 10.23 0 20.46 0 31 C-11.12240838 35.53135156 -22.27122668 39.90653409 -33.5625 44 C-34.65038818 44.39759521 -35.73827637 44.79519043 -36.85913086 45.20483398 C-37.87628174 45.57036377 -38.89343262 45.93589355 -39.94140625 46.3125 C-41.29794312 46.80169922 -41.29794312 46.80169922 -42.68188477 47.30078125 C-45 48 -45 48 -48 48 C-48 37.77 -48 27.54 -48 17 C-36.87759162 12.46864844 -25.72877332 8.09346591 -14.4375 4 C-13.34961182 3.60240479 -12.26172363 3.20480957 -11.14086914 2.79516602 C-10.12371826 2.42963623 -9.10656738 2.06410645 -8.05859375 1.6875 C-7.15423584 1.36136719 -6.24987793 1.03523437 -5.31811523 0.69921875 C-3 0 -3 0 0 0 Z " fill="#E31836" transform="translate(48,0)"/>
</svg>
