<svg width="70" height="28" viewBox="0 0 70 28" fill="none" xmlns="http://www.w3.org/2000/svg">
<mask id="path-1-inside-1_14_108" fill="white">
<path d="M52.3447 5.25195C56.2336 -7.1773 56.2332 5.25164 60.1221 13.7607C64.011 22.2699 64.0115 13.7607 67.9004 10.6143C68.7635 9.91597 69.435 9.52791 70 9.36328V28H0V21.2266C4.14582 11.2008 10.1804 11.5102 13.4561 13.4727C17.3447 15.8022 17.3446 13.4718 21.2334 5.11914C25.1221 -3.23317 25.1229 5.12011 29.0117 17.6006C32.9004 30.0803 32.9004 17.6007 36.7891 9.92578C40.6779 2.25084 40.6785 9.92506 44.5674 17.6807C48.4562 25.4362 48.4559 17.6811 52.3447 5.25195Z"/>
</mask>
<path d="M52.3447 5.25195C56.2336 -7.1773 56.2332 5.25164 60.1221 13.7607C64.011 22.2699 64.0115 13.7607 67.9004 10.6143C68.7635 9.91597 69.435 9.52791 70 9.36328V28H0V21.2266C4.14582 11.2008 10.1804 11.5102 13.4561 13.4727C17.3447 15.8022 17.3446 13.4718 21.2334 5.11914C25.1221 -3.23317 25.1229 5.12011 29.0117 17.6006C32.9004 30.0803 32.9004 17.6007 36.7891 9.92578C40.6779 2.25084 40.6785 9.92506 44.5674 17.6807C48.4562 25.4362 48.4559 17.6811 52.3447 5.25195Z" fill="url(#paint0_linear_14_108)"/>
<path d="M52.3447 5.25195L51.3904 4.95335V4.95335L52.3447 5.25195ZM60.1221 13.7607L59.2126 14.1764V14.1764L60.1221 13.7607ZM67.9004 10.6143L67.2714 9.83685L67.2714 9.83685L67.9004 10.6143ZM70 9.36328H71V8.03031L69.7203 8.40321L70 9.36328ZM70 28V29H71V28H70ZM0 28H-1V29H0V28ZM0 21.2266L-0.924107 20.8444L-1 21.028V21.2266H0ZM13.4561 13.4727L12.9421 14.3305L12.9421 14.3305L13.4561 13.4727ZM21.2334 5.11914L20.3268 4.69706L20.3268 4.69707L21.2334 5.11914ZM29.0117 17.6006L28.057 17.8981L28.057 17.8981L29.0117 17.6006ZM36.7891 9.92578L35.897 9.47379L35.897 9.47381L36.7891 9.92578ZM44.5674 17.6807L43.6735 18.1289L44.5674 17.6807ZM52.3447 5.25195L53.2991 5.55056C53.7803 4.01273 54.1912 2.89269 54.5458 2.11481C54.9232 1.28703 55.1701 1.00318 55.2486 0.945064C55.2535 0.941447 55.1423 1.02008 54.9559 0.99513C54.7895 0.972866 54.7272 0.88853 54.7652 0.928422C54.869 1.03727 55.0545 1.3525 55.296 2.00265C55.7629 3.25979 56.227 5.14007 56.8502 7.36351C57.4605 9.54063 58.2065 11.9751 59.2126 14.1764L60.1221 13.7607L61.0316 13.3451C60.0932 11.2919 59.3809 8.98177 58.776 6.8237C58.1841 4.71193 57.676 2.66635 57.1708 1.30627C56.9263 0.647822 56.6257 -0.0183958 56.213 -0.451421C55.9928 -0.682464 55.6647 -0.927841 55.2211 -0.9872C54.7575 -1.04925 54.3577 -0.883762 54.0588 -0.66253C53.5297 -0.270951 53.1082 0.446887 52.726 1.2852C52.3211 2.1734 51.8814 3.38386 51.3904 4.95335L52.3447 5.25195ZM60.1221 13.7607L59.2126 14.1764C59.7089 15.2624 60.1587 16.112 60.5787 16.7484C60.9857 17.3653 61.4245 17.8758 61.9324 18.1681C62.5208 18.5067 63.1614 18.5251 63.7391 18.2156C64.2222 17.9567 64.5779 17.5107 64.843 17.1135C65.1214 16.6963 65.3876 16.1943 65.6451 15.6932C65.9112 15.1753 66.1728 14.6487 66.4679 14.111C67.0607 13.031 67.7139 12.0515 68.5294 11.3917L67.9004 10.6143L67.2714 9.83685C66.1424 10.7503 65.3372 12.0144 64.7146 13.1488C64.402 13.7183 64.1167 14.2917 63.8662 14.7791C63.6072 15.2833 63.3872 15.6919 63.1795 16.0032C62.9584 16.3345 62.8279 16.4348 62.7944 16.4527C62.7932 16.4534 62.8027 16.4482 62.822 16.4432C62.8421 16.4381 62.8665 16.4349 62.8924 16.4356C62.9485 16.4371 62.965 16.4548 62.93 16.4346C62.8302 16.3772 62.6005 16.1811 62.248 15.6469C61.9084 15.1322 61.5075 14.3864 61.0316 13.3451L60.1221 13.7607ZM67.9004 10.6143L68.5294 11.3917C69.3517 10.7264 69.9014 10.4336 70.2797 10.3234L70 9.36328L69.7203 8.40321C68.9686 8.62224 68.1752 9.10556 67.2714 9.83685L67.9004 10.6143ZM70 9.36328H69V28H70H71V9.36328H70ZM70 28V27H0V28V29H70V28ZM0 28H1V21.2266H0H-1V28H0ZM0 21.2266L0.924107 21.6087C2.93546 16.7447 5.32175 14.5862 7.41113 13.7882C9.49813 12.9911 11.5039 13.4689 12.9421 14.3305L13.4561 13.4727L13.97 12.6148C12.1325 11.514 9.48316 10.8559 6.69751 11.9198C3.91424 12.9829 1.21036 15.6827 -0.924107 20.8444L0 21.2266ZM13.4561 13.4727L12.9421 14.3305C13.9283 14.9213 14.8776 15.3567 15.8001 15.3242C16.8392 15.2876 17.5748 14.6848 18.1531 13.8902C18.7106 13.1245 19.236 12.0265 19.8371 10.6845C20.4545 9.30588 21.1711 7.62228 22.14 5.54121L21.2334 5.11914L20.3268 4.69707C19.3513 6.79231 18.6096 8.53226 18.0118 9.86699C17.3976 11.2383 16.9509 12.1435 16.5362 12.7132C16.1424 13.2541 15.9058 13.3192 15.7297 13.3254C15.4371 13.3357 14.9281 13.1888 13.97 12.6148L13.4561 13.4727ZM21.2334 5.11914L22.14 5.54122C22.6169 4.51674 23.0141 3.79349 23.3458 3.31616C23.7075 2.7956 23.8811 2.73216 23.85 2.7422C23.7932 2.76056 23.7008 2.76453 23.6157 2.73153C23.5523 2.70695 23.5574 2.68635 23.6191 2.75834C23.7569 2.91888 23.9505 3.26745 24.1857 3.89735C24.6475 5.13424 25.118 7.01848 25.733 9.45534C26.3409 11.8638 27.0759 14.7494 28.057 17.8981L29.0117 17.6006L29.9664 17.3031C29.0031 14.2116 28.2797 11.3728 27.6722 8.96589C27.0719 6.58738 26.5699 4.56523 26.0594 3.19778C25.8083 2.52551 25.5158 1.89743 25.137 1.45595C24.9405 1.22694 24.6796 0.998995 24.339 0.866873C23.9766 0.726328 23.5956 0.722564 23.2349 0.839136C22.5962 1.04559 22.1013 1.60235 21.7034 2.1749C21.2755 2.79069 20.822 3.63346 20.3268 4.69706L21.2334 5.11914ZM29.0117 17.6006L28.057 17.8981C28.548 19.474 28.9875 20.6887 29.392 21.5814C29.7752 22.427 30.1936 23.1422 30.7128 23.5396C31.0028 23.7616 31.3922 23.9359 31.8512 23.8918C32.2969 23.8489 32.633 23.6161 32.8612 23.3892C33.284 22.9688 33.5889 22.3147 33.8334 21.6812C34.3387 20.3716 34.85 18.3931 35.4391 16.4014C36.0437 14.3575 36.7521 12.2113 37.6811 10.3777L36.7891 9.92578L35.897 9.47381C34.8817 11.4777 34.1319 13.7696 33.5212 15.8341C32.8951 17.9509 32.4343 19.7515 31.9675 20.9611C31.7259 21.5873 31.5446 21.8779 31.451 21.971C31.4209 22.0009 31.4912 21.9171 31.6597 21.9009C31.8415 21.8835 31.9423 21.9621 31.9284 21.9515C31.84 21.8838 31.5901 21.5865 31.2137 20.7559C30.8587 19.9724 30.4476 18.8471 29.9664 17.3031L29.0117 17.6006ZM36.7891 9.92578L37.6811 10.3778C38.156 9.44057 38.5515 8.77845 38.8821 8.33498C39.2313 7.86649 39.4268 7.75427 39.4637 7.73978C39.4648 7.73936 39.452 7.74445 39.4273 7.7471C39.4019 7.74983 39.3729 7.74895 39.3439 7.74336C39.2838 7.73179 39.2685 7.70949 39.3007 7.73584C39.3909 7.80964 39.5574 8.01488 39.7853 8.46696C40.2355 9.35993 40.6918 10.7167 41.3172 12.4561C41.9279 14.1546 42.6734 16.1345 43.6735 18.1289L44.5674 17.6807L45.4613 17.2324C44.5169 15.349 43.804 13.4613 43.1993 11.7794C42.6093 10.1385 42.0933 8.60224 41.5712 7.56658C41.3129 7.05434 40.9932 6.53636 40.5669 6.18769C40.3408 6.0028 40.0596 5.84445 39.7222 5.77947C39.3777 5.71309 39.041 5.75709 38.7326 5.87819C38.1618 6.10234 37.6889 6.58916 37.2785 7.13973C36.8495 7.71531 36.3944 8.49226 35.897 9.47379L36.7891 9.92578ZM44.5674 17.6807L43.6735 18.1289C44.1698 19.1187 44.6263 19.9072 45.0588 20.4834C45.4633 21.0222 45.9672 21.5431 46.6078 21.7217C46.9638 21.8209 47.3323 21.8056 47.6801 21.6675C48.0097 21.5367 48.2663 21.3178 48.4633 21.0932C48.843 20.6607 49.137 20.0497 49.3892 19.3951C49.9013 18.0661 50.4037 16.1037 51.0041 13.7781C51.6117 11.4242 52.3353 8.63109 53.2991 5.55056L52.3447 5.25195L51.3904 4.95335C50.4098 8.08738 49.6751 10.9246 49.0675 13.2781C48.4527 15.6599 47.983 17.4821 47.523 18.676C47.2891 19.2829 47.097 19.618 46.9602 19.7739C46.8991 19.8435 46.8898 19.8294 46.9422 19.8086C47.0128 19.7806 47.0927 19.7806 47.1449 19.7951C47.1779 19.8043 47.0134 19.7558 46.6583 19.2828C46.3314 18.8472 45.9372 18.1815 45.4613 17.2324L44.5674 17.6807Z" fill="url(#paint1_linear_14_108)" mask="url(#path-1-inside-1_14_108)"/>
<defs>
<linearGradient id="paint0_linear_14_108" x1="35" y1="0" x2="35" y2="28" gradientUnits="userSpaceOnUse">
<stop stop-color="#42CF71"/>
<stop offset="1" stop-color="white" stop-opacity="0"/>
</linearGradient>
<linearGradient id="paint1_linear_14_108" x1="36.3755" y1="9.36925" x2="36.0535" y2="26.5402" gradientUnits="userSpaceOnUse">
<stop stop-color="#42CF71"/>
<stop offset="1" stop-color="#666666" stop-opacity="0"/>
</linearGradient>
</defs>
</svg>
